<?xml version="1.0" encoding="utf-8"?>
<!-- Generator: Adobe Illustrator 25.2.3, SVG Export Plug-In . SVG Version: 6.00 Build 0)  -->
<svg version="1.1" id="Layer_1" xmlns="http://www.w3.org/2000/svg" xmlns:xlink="http://www.w3.org/1999/xlink" x="0px" y="0px"
	 viewBox="0 0 726.3 118.7" style="enable-background:new 0 0 726.3 118.7;" xml:space="preserve">
<g>
	<path d="M349.2,8.3c-3.6,0.4-6.8,1.9-10.1,3.2c-9,3.5-16.6,9.2-23.8,15.6c-4.3,3.9-6.8,8.6-9,13.8c-2.4,5.8-5,11.5-7.4,17.3
		c-2.7,6.6-5.3,13.3-8,19.8c-2.3,5.4-4.7,10.8-7,16.2c-2.2,5-4.7,9.9-7.8,14.4c-1.4,2-3,4-4.5,6c-1.1,1.3-2.5,1-4.1,0.8
		c-0.4-0.7-0.9-1.6-1.2-2.1c0.5-8.5,3.4-16.1,6.8-23.3c4.9-10.4,9.8-20.8,15.2-31c3.9-7.3,7.9-14.6,12.8-21.4
		c0.8-1.1,1.6-2.1,2.4-3.2c3.6-5,4.8-11,6.5-16.8c0.3-1.1,0-2.3,0-3.5c0.6-0.5,1.2-1,1.5-1.3c1.9-0.4,3.6,1.2,3.4,3.2
		c-0.2,2-0.8,3.9-1.2,5.8c-0.1,0.6-0.3,1.2-0.6,2.2c2.1-1.8,3.7-3.4,5.5-4.8c2.9-2.2,5.8-4.2,8.8-6.2c1.1-0.7,2.4-1.2,3.4-2
		c3.4-2.6,7.5-3.8,11.5-5.3c2-0.8,4.1-1.2,6.2-1.7C349.2,4,350,4,350.7,4c3.6,0.2,5.2,2.8,3.5,5.9c-2.2,4.3-5.4,7.9-8.6,11.6
		c-6.9,8-13.8,15.9-20.7,23.8c-6.2,7.1-11.8,14.6-16.9,22.5c-2.4,3.7-4.6,7.6-6.9,11.5c-0.4,0.7-0.7,1.5-0.9,2.3
		c-1.6,4.9-0.6,7.7,3.6,10.6c4.3,2.9,8.3,6,11.9,9.7c1.8,1.9,3.4,4,5.3,6.3c1.1-1.8,1-3.9,3-5.1c1.4,3.1,1.4,6,0.2,8.9
		c-2.4,1.5-4.3,0.3-5.9-1.2c-1.5-1.4-3-2.9-4.2-4.5c-3-4.1-7.2-6.9-11.1-9.9c-1.6-1.2-3.1-2.5-4.6-3.8c-4.9-4.6-4.9-9.3-2.2-14.7
		c3.4-6.7,7.7-13,12.3-19c2.9-3.8,5.6-7.6,8.5-11.3c3.2-3.9,6.6-7.7,9.9-11.5c5.2-6,10.4-11.8,15.5-17.9c2.5-3,4.8-6.3,7.1-9.4
		C349.5,8.7,349.3,8.5,349.2,8.3z M296,53.7c-9.2,16.7-18,33.4-23.7,51.7c1.1-1.2,2.1-2.4,2.8-3.8c2.6-5.2,5.3-10.3,7.7-15.6
		c3.3-7.4,6.3-15,9.4-22.5C293.5,60.3,294.7,57,296,53.7z"/>
	<path d="M48.2,28.2c1.1-0.6,2.3-1.2,3.4-1.9c5.3-3.2,10.6-6.5,16.6-8.6c2.2-0.8,4.5-1.3,6.7-1.7c1.6-0.3,3.1,0.4,4.3,1.6
		c0,0.8,0,1.6,0,2.7c-0.7,0.3-1.3,0.7-2,0.7c-4.4,0.2-8.4,1.9-12.2,3.8c-10,4.9-19.1,11.3-27.9,18.3c-4.3,3.4-8.7,6.7-12.7,10.4
		c-3.6,3.2-6.8,6.8-10.1,10.3c-0.6,0.6-0.9,1.4-1.3,2.1c1,1.3,2.3,1.6,3.6,1.6c3.6-0.1,7.1-0.2,10.7-0.4c2.7-0.1,5.5-0.4,8.2-0.5
		c4.6-0.2,9.3-0.5,13.9-0.6c2.1,0,4.1,0.2,6.2,0.5c1.7,0.3,2.9,1.4,4,3.2c-0.6,1.1-1.1,2.3-2,3.2c-3.5,4-8,6.8-12.4,9.6
		c-5.2,3.3-10.6,6.4-16,9.4c-4.4,2.5-8.9,4.8-13.4,7.1c-2.6,1.3-5.2,2.6-7.9,3.8c-1.4,0.6-2.8,1-4.3,1.3c-1.2,0.3-3-0.8-3.5-1.9
		c-0.5-1.1-0.2-2.2,1.2-3.2c2.1-1.6,4.3-3.1,6.7-4.7c1.1,0.3,2.2,0.5,3.7,0.9c4.1-2.2,8.6-4.6,13-7.2C31.6,84,38.3,80.1,44.9,76
		c2.3-1.4,4.3-3.2,6.5-4.8c-0.1-0.2-0.1-0.3-0.2-0.5c-1.2,0-2.4-0.1-3.6,0c-4.6,0.3-9.1,0.7-13.7,1c-5.2,0.4-10.4,0.7-15.6,1
		c-2.8,0.1-5.3-0.9-7.8-2.1c-2.6-1.3-3.6-5.7-2-7.8c1.3-1.8,2.8-3.5,4.2-5.2c4.4-5.1,9.8-9.2,14.8-13.6c5.8-5.1,12-9.6,18.4-14
		c0.8-0.5,1.6-1.1,2.4-1.7C48.3,28.3,48.3,28.2,48.2,28.2z"/>
	<path d="M40.4,106.7c1,0.1,1.4,0.2,1.6,0.1c2.2-0.8,4.5-1.6,6.7-2.6c5-2.4,10.2-4.3,15.6-5.9c4-1.2,7.8-2.8,11.7-4.3
		c0.8-0.3,1.5-1,2.3-1.5c2.7-1.9,5.2-1.6,6.9,0.8c-0.1,1.3-0.9,2-2.1,2.5c-3.6,1.5-7.1,3.2-10.8,4.5c-8.6,2.9-17,6.2-25.2,10
		c-2.9,1.4-6,1.9-9.2,1.7c-3.2-0.2-4.3-2-3.3-5.1c1.7-5,4.9-9,8-13.1c4.6-5.9,9.3-11.7,13.8-17.6c4.6-6,9-12.3,13.6-18.3
		c5.6-7.2,11.2-14.4,16.9-21.5c3.9-4.8,8.2-9.3,12.3-14c0.9-1.1,1.8-2.2,2.8-3.1c0.7-0.7,1.6-1.1,2.5-1.8c0.8,0.9,1.5,1.6,2,2.1
		c0.6,1.8-0.4,2.8-1.2,3.8c-5.3,6-10.8,11.9-15.9,18.1c-4.9,5.8-9.5,11.9-14.2,18c-7.1,9.3-14.1,18.7-21.1,28
		c-3.3,4.4-6.8,8.6-10,13C42.8,102.4,41.8,104.4,40.4,106.7z"/>
	<path d="M554.9,36.9c0-0.7,0-1.4,0-2.1c0.4-0.2,0.9-0.7,1.3-0.7c4.1-0.2,7.5-2.1,10.8-4c12.1-6.9,24.8-12.5,37.9-17.2
		c1.7-0.6,3.4-1.3,4.8-1.8c2.1-3.1,2.2-6.8,4.6-9.8c1,0.7,1.8,1.3,2.9,2.1c-0.6,1.8-1.2,3.6-1.9,5.8c4.5-1.2,8.6-2.3,12.7-3.4
		c1.6-0.4,3.2-0.8,4.8-1.2c2.7-0.7,5.4-1.4,8.2-2c3.4-0.7,6.8-1.3,10.2-1.9c1.4-0.2,2.7-0.5,4.1-0.6c1.2-0.1,2.3,0.2,3,1.8
		c-1.3,0.5-2.6,1-3.9,1.3c-3.9,0.9-7.7,1.8-11.6,2.7c-3.9,0.9-7.7,1.9-11.5,2.9c-5.3,1.4-10.5,2.8-15.8,4.2
		c-1.7,0.4-2.7,1.4-3.2,3.1c-2.1,6.8-4.5,13.6-6.5,20.5c-2.2,7.8-3.9,15.7-5.9,23.5c-1.1,4.2-2.3,8.4-3.4,12.7
		c-0.9,3.7-1.7,7.4-2.5,11.1c-0.9,4.4-1.9,8.7-2.7,13.1c-0.4,2.1-0.7,4.2-0.8,6.4c-0.3,4.8-0.5,9.6-0.7,14.5
		c-0.4,0.2-0.9,0.5-1.6,0.9c-0.9-0.6-1.7-1.3-2.3-1.7c0.1-2.8,0.3-5,0.3-7.2c0-7.8,1.5-15.5,3.2-23.1c1.7-7.7,3.6-15.4,5.5-23.1
		c1.5-6.2,3.2-12.3,4.8-18.4c1.6-6.1,3-12.2,4.6-18.2c0.8-3,1.9-5.9,2.9-8.9c0.2-0.7,0.4-1.4,0.7-2.5c-3.8,1.5-7.3,2.7-10.6,4.1
		c-5.2,2.2-10.5,4.3-15.7,6.8c-5.6,2.7-11.1,5.8-16.6,8.8c-2.3,1.3-4.7,2.1-7.1,2.7C556.7,38.2,555.8,38,554.9,36.9z"/>
	<path d="M405.1,90.6c2.2-0.6,4.2-1.1,6.1-1.8c2.7-1,5.3-0.2,7.7,0.8c3,1.3,5.7,3.1,7.8,5.6c1.4,1.7,2.8,3.3,4.2,4.9
		c0.6,0.7,1.4,1.2,2.3,1.9c0.1,0.6,0.2,1.5,0.3,2.4c-0.8,0.4-1.3,0.7-1.9,1c-2.1-0.9-3.7-2.3-5-4c-2.5-3.1-5-6.3-8.9-7.8
		c-2.7-1.1-5.5-1.1-8.2,0.2c-2.6,1.3-4.8,2.9-6.7,5c-1.2,1.3-2.6,2.1-4.5,1.1c-1.2-1-1.4-2.3-0.7-3.8c1.9-4.8,3.7-9.6,5.7-14.3
		c2.8-6.7,5.6-13.4,8.5-20.1c2-4.6,3.9-9.3,6-13.9c2.7-5.8,5.6-11.5,8.4-17.2c0.8-1.7,1.5-3.5,2.3-5.2c0.5-1.1,0.9-2.4,3.2-2.5
		c0.1,0.1,0.3,0.8,0.8,1.3c1,1,1.1,2,0.5,3.2c-2.1,4.2-4.3,8.4-6.3,12.7c-3.6,7.5-7.2,14.9-10.5,22.5c-2.8,6.3-5.2,12.7-7.8,19.1
		C407.4,84.6,406.3,87.5,405.1,90.6z"/>
	<path d="M138.1,84.3c-1.9,2.9-3.8,5.6-5.5,8.1c-2.4,0.3-3.5-1-4.8-2.4c-1-4.1-1.1-8.4-0.3-12.7c0.4-2,0.3-4.1,0.5-6.2
		c0.7-6.7,1.4-13.5,2.2-20.6c0.7-0.3,1.6-0.6,2.4-1c0.8,0.8,1.5,1.4,2,1.9c0.6,3.7,0,7-0.4,10.4c-0.6,4.7-1.3,9.4-1.8,14
		c-0.3,2.3-0.4,4.6-0.6,7.2c1.8-1.7,2.6-4.2,5.6-4.6c2.1,0.1,3.5,2.1,5.1,3.3c2.4-0.2,14.1-4.4,19.5-7.1c6.1-3,12.1-6.1,18.4-9.2
		c0.4,0.6,0.8,1.2,1.1,1.8c-0.9,2.7-3,4-5,5.3c-5,3.5-10.4,6.1-16.1,8.3c-3.7,1.4-7.5,2.7-11.1,4.4c-3.6,1.7-7,1.6-10.3-0.6
		C138.7,84.6,138.5,84.5,138.1,84.3z"/>
	<path d="M105,68.8c2.4,1.2,4,2.4,4.2,4.4c0.9,1.1,1.6,2,2.4,2.9c-0.7,0.8-1.1,1.4-1.7,2c-0.4,10-7,15.8-14.4,21c-1,0-1.7,0-2.5,0
		c-3.8,0-6.2-2.8-6-6.6c0.2-2.9,1.2-5.5,2.5-8c1.9-3.6,3.4-7.4,6.1-10.5c0.7-0.7,1.4-1.6,2.2-2c1.6-0.8,3.3-1.5,4.7-2.6
		C103.3,69,104.3,69,105,68.8z M100.2,77.1c-4.2,3.6-8.7,13.4-7.8,17c5.9-1.5,12.9-11.6,11.9-17.4c-0.7,0.3-1.3,0.6-2,0.8
		C101.5,77.4,100.8,77.3,100.2,77.1z"/>
	<path d="M393.1,75.9c-0.3,0.2-0.5,0.4-0.8,0.5c-0.4,0.2-0.9,0.4-1.5,0.6c-0.9-0.7-1.8-1.4-2.8-2.2c-5.1,1.1-11.7,7-11.7,10.9
		c1.1,0.8,2.2,1.7,3.5,2.5c2.3,1.5,4.1,3.3,5.1,6c0.8,2.3,0.7,4.4-1,6.2c-4.5,4.7-10,6.9-16.5,6.2c-1.4-0.2-2.7-0.5-4.1-0.9
		c-0.9-0.3-1.5-1-1.3-2.4c1.7-0.1,3.4-0.3,5.1-0.4c3.5,0,6.7-1.1,9.6-2.9c0.5-0.3,1-0.6,1.4-1c2.5-2.2,3.4-4.6-0.2-7
		c-1.6-1.1-3.2-2.3-4.7-3.7c-2.9-2.8-2-6.4-0.2-8.5c3.4-4,7.5-7.1,12.3-9.1C389,69,392.2,71,393.1,75.9z"/>
	<path d="M683,73c1.2,0,2,0,3.2,0c0.4,1.2,0.7,2.4,1.1,3.7c12.4-5.1,25.5-6,38.6-5.4c0.8,1.6-0.1,2.1-1.1,2.9
		c-4.6,0.3-9.4,0.4-14.1,1c-7.5,0.9-15,2.1-21.9,5.8c-3.3,1.8-6,4.3-8.7,6.9c-1.5,1.5-2.9,3.2-4.4,4.7c-1.2,1.3-2.1,1.2-4.3-0.2
		c-0.1-0.3-0.2-0.7-0.3-1.1c-0.1-0.3,0-0.7,0-1.2C676.4,85.4,681.1,80.1,683,73z"/>
	<path d="M336.5,79.2c1.1-0.2,1.9-0.3,2.5-0.4c1.9,1.1,2.1,2.6,1.5,4.2c-1.8,5.6-1.3,11.3-0.3,16.9c0.1,0.7,0.7,1.4,1.2,2.3
		c0.9-0.6,1.5-0.9,2.1-1.4c3.5-3.1,6.4-6.6,9-10.6c1.7-2.6,3.6-4.9,5.2-7c4.1-0.7,5.4,0,6,2.9c-3.7,0.6-5,3.9-6.8,6.5
		c-2.8,4-5.8,7.9-9.4,11.2c-0.7,0.7-1.6,1.2-2.4,1.7c-3,2.2-7.2-0.2-8.3-2.8c-0.7-1.5-1.3-3.1-1.4-4.7c-0.4-3.4-0.7-6.8-0.5-10.2
		C334.9,85.1,335.9,82.2,336.5,79.2z"/>
	<path d="M636.1,58.9c0.7,0.5,1.3,1.1,1.9,1.5c0.1,2.1-1.5,2.7-3.1,3.5c0.6,0.6,1.1,1.1,1.6,1.8c-0.1,4.3-1.7,8.1-4.4,11.5
		c-3.2,3.9-7.1,7.1-11.2,10.2c-1.8,1.4-3.8,2.1-6.2,0.7c-1.1-1.5-0.9-3.3,0.2-4.9c2.5-3.7,4.9-7.4,7.5-11.1c2.3-3.3,4.5-6.7,7.6-9.5
		C631.7,61,633.6,59.7,636.1,58.9z M620.5,81.9c0.1,0.1,0.3,0.2,0.4,0.4c1.9-1.7,3.7-3.4,5.5-5.2c1.2-1.2,2.3-2.4,3.3-3.7
		c1.5-2,2.2-4.3,2.2-6.5C627.6,71.6,623.6,76.5,620.5,81.9z"/>
	<path d="M664.8,69.9c1,0.6,1.6,1,2,1.2c0.4,1.6-0.8,2.1-1.6,2.7c-1.6,1.2-3.3,2.2-4.9,3.3c-4.2,2.9-8.4,5.8-12.6,8.9
		c-1.9,1.4-4,2-6.3,1.5c-2.6-1.9-3.2-3.4-2.3-6.6c0.4-1.6,1.1-3.1,1.6-4.7c0.4-1.2,1.1-2,2.3-2.3c1.9,1.3,1.9,1.3,2.5,3.3
		c-0.8,1.9-1.6,3.8-2.7,6.3C650.5,78.8,657.7,74.4,664.8,69.9z"/>
</g>
</svg>
